<?xml version="1.0" standalone="no"?>
<!DOCTYPE svg PUBLIC "-//W3C//DTD SVG 20010904//EN"
 "http://www.w3.org/TR/2001/REC-SVG-20010904/DTD/svg10.dtd">
<svg version="1.0" xmlns="http://www.w3.org/2000/svg"
 width="1086.000000pt" height="1201.000000pt" viewBox="0 0 1086.000000 1201.000000"
 preserveAspectRatio="xMidYMid meet">

<g transform="translate(0.000000,1201.000000) scale(0.100000,-0.100000)"
fill="#000000" stroke="none">
<path d="M9788 8572 c-499 -285 -915 -525 -925 -534 -24 -20 -1720 -988 -1732
-988 -8 0 -3351 -1902 -3443 -1959 l-28 -17 53 -87 c537 -895 1668 -1231 2596
-771 324 160 585 388 784 686 l63 95 865 -476 c475 -262 869 -480 876 -484 9
-5 -4 -34 -43 -99 -394 -649 -962 -1172 -1643 -1512 -408 -204 -830 -331
-1306 -393 -200 -26 -749 -26 -950 0 -196 25 -452 78 -637 131 -438 126 -891
350 -1268 629 -292 216 -591 512 -813 805 -83 110 -223 320 -277 417 -18 33
-35 62 -36 64 -4 4 -38 -15 -1127 -637 -390 -222 -710 -402 -712 -400 -1 2
-12 19 -24 38 -30 51 -26 29 8 -38 40 -79 101 -154 163 -201 47 -34 4760
-2686 4912 -2763 177 -89 396 -89 575 2 153 77 4862 2726 4909 2761 100 76
177 198 213 337 19 73 19 140 19 2823 0 3009 3 2832 -58 2963 -31 66 -77 126
-95 126 -7 0 -420 -234 -919 -518z"/>
</g>
</svg>
