<?xml version="1.0" standalone="no"?>
<!DOCTYPE svg PUBLIC "-//W3C//DTD SVG 20010904//EN"
 "http://www.w3.org/TR/2001/REC-SVG-20010904/DTD/svg10.dtd">
<svg version="1.0" xmlns="http://www.w3.org/2000/svg"
 width="1820.000000pt" height="2048.000000pt" viewBox="0 0 1820.000000 2048.000000"
 preserveAspectRatio="xMidYMid meet">

<g transform="translate(0.000000,2048.000000) scale(0.100000,-0.100000)"
fill="#000000" stroke="none">
<path d="M16455 14528 c-814 -468 -1482 -854 -1485 -858 -6 -8 -2871 -1658
-2926 -1685 -23 -11 -1347 -771 -2942 -1690 l-2901 -1670 31 -55 c135 -242
399 -570 618 -768 575 -521 1235 -813 1993 -883 183 -17 582 -6 759 20 522 77
990 259 1423 552 370 251 727 622 955 993 36 58 69 106 73 106 5 0 66 -33 135
-74 70 -40 696 -403 1392 -806 1439 -833 1400 -810 1400 -818 0 -11 -137 -232
-232 -375 -709 -1063 -1719 -1911 -2893 -2430 -720 -318 -1484 -504 -2290
-558 -227 -15 -869 -6 -1075 15 -860 89 -1629 310 -2368 680 -653 327 -1192
711 -1711 1221 -430 422 -762 839 -1060 1332 -89 147 -93 152 -115 140 -13 -6
-698 -401 -1524 -877 l-1501 -864 25 -45 c117 -210 349 -437 604 -593 82 -50
817 -474 2990 -1723 2486 -1430 3571 -2055 4110 -2370 257 -150 341 -195 470
-248 210 -87 392 -126 620 -134 312 -11 590 55 893 212 56 28 467 263 912 520
446 257 2088 1203 3650 2103 1562 899 2877 1659 2922 1689 442 294 693 712
752 1255 15 132 15 8692 1 8839 -13 135 -44 290 -81 403 -33 101 -123 296
-136 296 -5 0 -675 -383 -1488 -852z m-2103 -2795 l3 -478 478 -3 477 -2 0
480 0 480 240 0 240 0 0 -480 0 -480 480 0 480 0 -2 -237 -3 -238 -477 -3
-478 -2 0 -475 0 -475 480 0 480 0 0 -240 0 -240 -480 0 -480 0 0 -480 0 -480
-240 0 -240 0 0 480 0 480 -480 0 -480 0 0 -480 0 -480 -240 0 -240 0 0 480 0
480 -475 0 -475 0 0 240 0 240 475 0 475 0 0 475 0 475 -475 0 -475 0 0 240 0
240 475 0 475 0 0 480 0 480 240 0 240 0 2 -477z"/>
<path d="M14350 10295 l0 -475 480 0 480 0 0 475 0 475 -480 0 -480 0 0 -475z"/>
</g>
</svg>
