<?xml version="1.0" standalone="no"?>
<!DOCTYPE svg PUBLIC "-//W3C//DTD SVG 20010904//EN"
 "http://www.w3.org/TR/2001/REC-SVG-20010904/DTD/svg10.dtd">
<svg version="1.0" xmlns="http://www.w3.org/2000/svg"
 width="225.000000pt" height="225.000000pt" viewBox="0 0 225.000000 225.000000"
 preserveAspectRatio="xMidYMid meet">

<g transform="translate(0.000000,225.000000) scale(0.100000,-0.100000)"
fill="#000000" stroke="none">
<path d="M965 2046 c-273 -63 -498 -279 -565 -542 -25 -98 -27 -269 -4 -363
21 -84 80 -213 127 -274 l37 -47 0 -360 c0 -198 3 -360 7 -360 5 0 132 41 283
92 l275 91 275 -91 c151 -51 279 -92 283 -92 4 0 7 162 7 360 l0 360 35 49
c91 126 145 297 145 456 0 205 -66 362 -215 510 -157 157 -290 215 -505 221
-83 2 -145 -1 -185 -10z m250 -176 c111 -16 223 -75 310 -164 119 -120 173
-264 162 -431 -10 -147 -69 -268 -183 -375 -107 -100 -233 -150 -379 -150
-146 0 -272 51 -381 153 -112 104 -171 226 -181 373 -16 228 110 444 318 544
113 54 205 68 334 50z m-397 -1239 c183 -92 434 -90 625 5 27 13 51 24 53 24
2 0 4 -64 4 -143 l0 -143 -188 48 -187 47 -188 -47 -187 -48 0 143 c0 79 2
143 5 143 3 0 31 -13 63 -29z"/>
<path d="M1000 1559 c-99 -50 -148 -131 -149 -249 -3 -297 406 -379 530 -106
21 47 24 152 6 203 -40 108 -147 183 -262 183 -49 0 -75 -6 -125 -31z"/>
</g>
</svg>
