<?xml version="1.0" encoding="UTF-8"?>
<svg version="1.1" xmlns="http://www.w3.org/2000/svg" width="512" height="512">
<path d="M0 0 C1.17080612 -0.00365067 2.34161224 -0.00730133 3.54789734 -0.01106262 C7.38112332 -0.01910466 11.21391802 -0.00560962 15.04711914 0.0090332 C17.7341012 0.00955261 20.42106748 0.00908365 23.10804749 0.00752258 C28.72540325 0.00664343 34.34263747 0.01763913 39.95996094 0.03613281 C46.42085823 0.05728425 52.88157762 0.06081018 59.34250253 0.05457085 C65.59916806 0.04884191 71.85577202 0.0545648 78.11242867 0.0657444 C80.75600499 0.06957287 83.3995866 0.07075446 86.04316521 0.06915855 C89.74892958 0.06878448 93.4544316 0.08150379 97.16015625 0.09765625 C98.23535522 0.09517883 99.3105542 0.09270142 100.41833496 0.09014893 C125.08554281 0.26030764 147.19514361 8.83401584 164.64477539 26.37231445 C173.30697635 35.98361459 179.83302478 47.99849085 183.64477539 60.37231445 C184.1378418 58.99172852 184.1378418 58.99172852 184.64086914 57.58325195 C192.97574385 35.04966596 207.36168354 18.16187566 229.19555664 7.6652832 C247.345121 -0.4643915 266.17805228 -0.06586766 285.67602539 0.0090332 C288.36544376 0.00955292 291.05484638 0.0090827 293.7442627 0.00752258 C299.34852173 0.00664618 304.95265826 0.01758963 310.55688477 0.03613281 C317.01285357 0.05737341 323.46864441 0.06078881 329.92464113 0.05457085 C336.17866111 0.0488589 342.43261921 0.05453907 348.68663025 0.0657444 C351.33072154 0.0695811 353.97481815 0.07075099 356.61891174 0.06915855 C360.3105783 0.06878646 364.0019773 0.08144613 367.69360352 0.09765625 C368.77532837 0.09517883 369.85705322 0.09270142 370.97155762 0.09014893 C384.55092254 0.18499685 394.25970388 3.40611561 404.30493164 12.72387695 C411.00564294 20.30832146 413.79418467 28.87154669 413.79194641 38.7833252 C413.7956231 39.65200745 413.79929979 40.52068971 413.80308789 41.41569567 C413.81413568 44.33809015 413.81797048 47.26044908 413.82177734 50.18286133 C413.82804132 52.27380486 413.83468806 54.36474728 413.84169006 56.45568848 C413.86274586 63.33413923 413.87309586 70.21259024 413.88305664 77.09106445 C413.88710404 79.45923372 413.89122095 81.82740287 413.89540672 84.1955719 C413.91446401 95.32440969 413.92869228 106.45324083 413.93701869 117.58209181 C413.94678478 130.42312474 413.97308578 143.263985 414.01351959 156.1049571 C414.04370368 166.03207275 414.05848987 175.95913898 414.06179971 185.88629961 C414.06414814 191.81396166 414.07308158 197.74143936 414.09826088 203.66905212 C414.12158563 209.25049147 414.12575697 214.83162569 414.1154995 220.4131012 C414.11500505 222.45644141 414.12129839 224.49979686 414.13505554 226.54309082 C414.22811781 241.19061636 413.50324079 253.36333568 402.64477539 264.37231445 C390.32631449 274.8045838 377.03604852 274.95215037 361.70336914 274.91137695 C359.65144312 274.92131051 357.59952599 274.9332617 355.54762268 274.94711304 C350.15390235 274.97937339 344.76038441 274.98985264 339.36657715 274.99395752 C329.77042424 275.00376589 320.1743658 275.04481085 310.57836914 275.09887695 C309.04433913 275.10706451 309.04433913 275.10706451 307.47931862 275.11541748 C254.38899428 274.4931486 254.38899428 274.4931486 208.41430664 297.61450195 C206.64477539 299.37231445 206.64477539 299.37231445 204.64477539 299.37231445 C204.38051758 299.9446582 204.11625977 300.51700195 203.84399414 301.10668945 C202.57925612 303.49609679 201.09776247 305.47504075 199.45727539 307.62231445 C193.54718599 315.93105938 189.72579556 325.6934023 186.64477539 335.37231445 C184.99477539 335.70231445 183.34477539 336.03231445 181.64477539 336.37231445 C181.44883789 335.84766602 181.25290039 335.32301758 181.05102539 334.7824707 C172.69766573 313.14294847 163.77630088 297.10930077 141.92602539 286.74731445 C114.96631358 275.44991141 85.48310627 275.24844464 56.71118164 275.09887695 C55.68537239 275.09313597 54.65956314 275.08739498 53.60266876 275.08148003 C43.94674505 275.03006668 34.29082316 274.99880368 24.63476562 274.99145508 C19.30078609 274.98642456 13.96717013 274.9621345 8.63331413 274.92612839 C6.6244723 274.91640341 4.61558015 274.91395802 2.60672188 274.91930008 C-11.52843762 274.95522492 -24.22649449 274.21930783 -35.35522461 264.37231445 C-43.18649702 255.5398461 -46.82804521 246.99457663 -46.74963379 235.24650574 C-46.75572489 234.3734025 -46.761816 233.50029926 -46.76809168 232.60073835 C-46.78463091 229.69918498 -46.77995889 226.79807483 -46.77514648 223.89648438 C-46.78249211 221.8062749 -46.79107977 219.71606948 -46.80081177 217.62586975 C-46.82298513 211.96458442 -46.82596051 206.30344482 -46.82406425 200.64212203 C-46.82394435 195.90823816 -46.83251657 191.17438494 -46.84084177 186.44050962 C-46.86006107 175.26761051 -46.86296512 164.09478611 -46.85620117 152.921875 C-46.84956231 141.41393113 -46.87242214 129.90630794 -46.9095149 118.3984291 C-46.94025138 108.50173259 -46.95156761 98.60513903 -46.94767809 88.70839578 C-46.94561459 82.80480395 -46.95102843 76.90146169 -46.97557068 70.99791527 C-46.99790014 65.44339618 -46.99590814 59.88939697 -46.97564316 54.33487511 C-46.97224404 52.30324395 -46.97727452 50.27157736 -46.99162674 48.23999405 C-47.09073173 33.16425076 -45.66238126 21.78130418 -34.66772461 10.49731445 C-24.80376874 1.43313879 -13.0382751 -0.09251672 0 0 Z " fill="#388DD2" transform="translate(72.355224609375,87.627685546875)"/>
<path d="M0 0 C1.10218369 -0.00281982 2.20436737 -0.00563965 3.33995056 -0.00854492 C5.1696212 -0.00550858 5.1696212 -0.00550858 7.03625488 -0.00241089 C8.31251236 -0.00416321 9.58876984 -0.00591553 10.90370178 -0.00772095 C14.41393793 -0.01229485 17.9241448 -0.0105059 21.43438148 -0.00734186 C25.10013536 -0.00481804 28.76588666 -0.00715586 32.43164062 -0.00872803 C38.58874972 -0.01054966 44.74584683 -0.00814359 50.9029541 -0.00338745 C58.03126406 0.00205516 65.15954541 0.0002925 72.28785467 -0.00521386 C78.39739652 -0.00974518 84.50692974 -0.01039544 90.61647272 -0.00777519 C94.27011236 -0.00621252 97.92373854 -0.00601838 101.57737732 -0.00931168 C105.64832262 -0.01272451 109.71921826 -0.00800035 113.79016113 -0.00241089 C115.00994156 -0.00443512 116.22972198 -0.00645935 117.48646545 -0.00854492 C119.13974098 -0.00431519 119.13974098 -0.00431519 120.82641602 0 C122.27214367 0.00056554 122.27214367 0.00056554 123.74707794 0.0011425 C125.91320801 0.12698364 125.91320801 0.12698364 126.91320801 1.12698364 C127.01237371 2.74955909 127.04400577 4.37638195 127.04602051 6.00198364 C127.04730957 6.98682739 127.04859863 7.97167114 127.04992676 8.98635864 C127.04605957 10.02276489 127.04219238 11.05917114 127.03820801 12.12698364 C127.0420752 13.16338989 127.04594238 14.19979614 127.04992676 15.26760864 C127.04799316 16.74487427 127.04799316 16.74487427 127.04602051 18.25198364 C127.04489258 19.16206177 127.04376465 20.07213989 127.04260254 21.00979614 C126.91320801 23.12698364 126.91320801 23.12698364 125.91320801 24.12698364 C124.21993744 24.22535405 122.52254146 24.2533038 120.82641602 24.25396729 C119.72423233 24.25678711 118.62204865 24.25960693 117.48646545 24.26251221 C116.26668503 24.26048798 115.0469046 24.25846375 113.79016113 24.25637817 C111.87577492 24.25900665 111.87577492 24.25900665 109.92271423 24.26168823 C106.41247809 24.26626213 102.90227121 24.26447319 99.39203453 24.26130915 C95.72628065 24.25878532 92.06052936 24.26112315 88.39477539 24.26269531 C82.2376663 24.26451694 76.08056919 24.26211087 69.92346191 24.25735474 C62.79515196 24.25191213 55.6668706 24.25367479 48.53856134 24.25918114 C42.4290195 24.26371246 36.31948628 24.26436273 30.20994329 24.26174247 C26.55630366 24.2601798 22.90267748 24.25998566 19.2490387 24.26327896 C15.1780934 24.2666918 11.10719776 24.26196764 7.03625488 24.25637817 C5.20658424 24.25941452 5.20658424 24.25941452 3.33995056 24.26251221 C1.68667503 24.25828247 1.68667503 24.25828247 0 24.25396729 C-0.96381844 24.25359026 -1.92763687 24.25321323 -2.92066193 24.25282478 C-5.08679199 24.12698364 -5.08679199 24.12698364 -6.08679199 23.12698364 C-6.1859577 21.5044082 -6.21758976 19.87758533 -6.21960449 18.25198364 C-6.22089355 17.26713989 -6.22218262 16.28229614 -6.22351074 15.26760864 C-6.21964355 14.23120239 -6.21577637 13.19479614 -6.21179199 12.12698364 C-6.21759277 10.57237427 -6.21759277 10.57237427 -6.22351074 8.98635864 C-6.22222168 8.00151489 -6.22093262 7.01667114 -6.21960449 6.00198364 C-6.21847656 5.09190552 -6.21734863 4.18182739 -6.21618652 3.24417114 C-5.96465226 -0.87149898 -3.56711549 0.00139538 0 0 Z " fill="#FCFDFE" transform="translate(299.0867919921875,230.87301635742188)"/>
<path d="M0 0 C1.10218369 -0.00281982 2.20436737 -0.00563965 3.33995056 -0.00854492 C5.1696212 -0.00550858 5.1696212 -0.00550858 7.03625488 -0.00241089 C8.31251236 -0.00416321 9.58876984 -0.00591553 10.90370178 -0.00772095 C14.41393793 -0.01229485 17.9241448 -0.0105059 21.43438148 -0.00734186 C25.10013536 -0.00481804 28.76588666 -0.00715586 32.43164062 -0.00872803 C38.58874972 -0.01054966 44.74584683 -0.00814359 50.9029541 -0.00338745 C58.03126406 0.00205516 65.15954541 0.0002925 72.28785467 -0.00521386 C78.39739652 -0.00974518 84.50692974 -0.01039544 90.61647272 -0.00777519 C94.27011236 -0.00621252 97.92373854 -0.00601838 101.57737732 -0.00931168 C105.64832262 -0.01272451 109.71921826 -0.00800035 113.79016113 -0.00241089 C115.00994156 -0.00443512 116.22972198 -0.00645935 117.48646545 -0.00854492 C119.13974098 -0.00431519 119.13974098 -0.00431519 120.82641602 0 C122.27214367 0.00056554 122.27214367 0.00056554 123.74707794 0.0011425 C125.91320801 0.12698364 125.91320801 0.12698364 126.91320801 1.12698364 C127.01237371 2.74955909 127.04400577 4.37638195 127.04602051 6.00198364 C127.04730957 6.98682739 127.04859863 7.97167114 127.04992676 8.98635864 C127.04605957 10.02276489 127.04219238 11.05917114 127.03820801 12.12698364 C127.0420752 13.16338989 127.04594238 14.19979614 127.04992676 15.26760864 C127.04799316 16.74487427 127.04799316 16.74487427 127.04602051 18.25198364 C127.04489258 19.16206177 127.04376465 20.07213989 127.04260254 21.00979614 C126.91320801 23.12698364 126.91320801 23.12698364 125.91320801 24.12698364 C124.21993744 24.22535405 122.52254146 24.2533038 120.82641602 24.25396729 C119.72423233 24.25678711 118.62204865 24.25960693 117.48646545 24.26251221 C116.26668503 24.26048798 115.0469046 24.25846375 113.79016113 24.25637817 C111.87577492 24.25900665 111.87577492 24.25900665 109.92271423 24.26168823 C106.41247809 24.26626213 102.90227121 24.26447319 99.39203453 24.26130915 C95.72628065 24.25878532 92.06052936 24.26112315 88.39477539 24.26269531 C82.2376663 24.26451694 76.08056919 24.26211087 69.92346191 24.25735474 C62.79515196 24.25191213 55.6668706 24.25367479 48.53856134 24.25918114 C42.4290195 24.26371246 36.31948628 24.26436273 30.20994329 24.26174247 C26.55630366 24.2601798 22.90267748 24.25998566 19.2490387 24.26327896 C15.1780934 24.2666918 11.10719776 24.26196764 7.03625488 24.25637817 C5.20658424 24.25941452 5.20658424 24.25941452 3.33995056 24.26251221 C1.68667503 24.25828247 1.68667503 24.25828247 0 24.25396729 C-0.96381844 24.25359026 -1.92763687 24.25321323 -2.92066193 24.25282478 C-5.08679199 24.12698364 -5.08679199 24.12698364 -6.08679199 23.12698364 C-6.1859577 21.5044082 -6.21758976 19.87758533 -6.21960449 18.25198364 C-6.22089355 17.26713989 -6.22218262 16.28229614 -6.22351074 15.26760864 C-6.21964355 14.23120239 -6.21577637 13.19479614 -6.21179199 12.12698364 C-6.21759277 10.57237427 -6.21759277 10.57237427 -6.22351074 8.98635864 C-6.22222168 8.00151489 -6.22093262 7.01667114 -6.21960449 6.00198364 C-6.21847656 5.09190552 -6.21734863 4.18182739 -6.21618652 3.24417114 C-5.96465226 -0.87149898 -3.56711549 0.00139538 0 0 Z " fill="#FDFEFE" transform="translate(92.0867919921875,230.87301635742188)"/>
<path d="M0 0 C1.10218369 -0.00281982 2.20436737 -0.00563965 3.33995056 -0.00854492 C5.1696212 -0.00550858 5.1696212 -0.00550858 7.03625488 -0.00241089 C8.31251236 -0.00416321 9.58876984 -0.00591553 10.90370178 -0.00772095 C14.41393793 -0.01229485 17.9241448 -0.0105059 21.43438148 -0.00734186 C25.10013536 -0.00481804 28.76588666 -0.00715586 32.43164062 -0.00872803 C38.58874972 -0.01054966 44.74584683 -0.00814359 50.9029541 -0.00338745 C58.03126406 0.00205516 65.15954541 0.0002925 72.28785467 -0.00521386 C78.39739652 -0.00974518 84.50692974 -0.01039544 90.61647272 -0.00777519 C94.27011236 -0.00621252 97.92373854 -0.00601838 101.57737732 -0.00931168 C105.64832262 -0.01272451 109.71921826 -0.00800035 113.79016113 -0.00241089 C115.00994156 -0.00443512 116.22972198 -0.00645935 117.48646545 -0.00854492 C119.13974098 -0.00431519 119.13974098 -0.00431519 120.82641602 0 C122.27214367 0.00056554 122.27214367 0.00056554 123.74707794 0.0011425 C125.91320801 0.12698364 125.91320801 0.12698364 126.91320801 1.12698364 C127.01237371 2.74955909 127.04400577 4.37638195 127.04602051 6.00198364 C127.04730957 6.98682739 127.04859863 7.97167114 127.04992676 8.98635864 C127.04605957 10.02276489 127.04219238 11.05917114 127.03820801 12.12698364 C127.0420752 13.16338989 127.04594238 14.19979614 127.04992676 15.26760864 C127.04799316 16.74487427 127.04799316 16.74487427 127.04602051 18.25198364 C127.04489258 19.16206177 127.04376465 20.07213989 127.04260254 21.00979614 C126.91320801 23.12698364 126.91320801 23.12698364 125.91320801 24.12698364 C124.21993744 24.22535405 122.52254146 24.2533038 120.82641602 24.25396729 C119.72423233 24.25678711 118.62204865 24.25960693 117.48646545 24.26251221 C116.26668503 24.26048798 115.0469046 24.25846375 113.79016113 24.25637817 C111.87577492 24.25900665 111.87577492 24.25900665 109.92271423 24.26168823 C106.41247809 24.26626213 102.90227121 24.26447319 99.39203453 24.26130915 C95.72628065 24.25878532 92.06052936 24.26112315 88.39477539 24.26269531 C82.2376663 24.26451694 76.08056919 24.26211087 69.92346191 24.25735474 C62.79515196 24.25191213 55.6668706 24.25367479 48.53856134 24.25918114 C42.4290195 24.26371246 36.31948628 24.26436273 30.20994329 24.26174247 C26.55630366 24.2601798 22.90267748 24.25998566 19.2490387 24.26327896 C15.1780934 24.2666918 11.10719776 24.26196764 7.03625488 24.25637817 C5.20658424 24.25941452 5.20658424 24.25941452 3.33995056 24.26251221 C1.68667503 24.25828247 1.68667503 24.25828247 0 24.25396729 C-0.96381844 24.25359026 -1.92763687 24.25321323 -2.92066193 24.25282478 C-5.08679199 24.12698364 -5.08679199 24.12698364 -6.08679199 23.12698364 C-6.1859577 21.5044082 -6.21758976 19.87758533 -6.21960449 18.25198364 C-6.22089355 17.26713989 -6.22218262 16.28229614 -6.22351074 15.26760864 C-6.21964355 14.23120239 -6.21577637 13.19479614 -6.21179199 12.12698364 C-6.21759277 10.57237427 -6.21759277 10.57237427 -6.22351074 8.98635864 C-6.22222168 8.00151489 -6.22093262 7.01667114 -6.21960449 6.00198364 C-6.21847656 5.09190552 -6.21734863 4.18182739 -6.21618652 3.24417114 C-5.96465226 -0.87149898 -3.56711549 0.00139538 0 0 Z " fill="#FCFDFE" transform="translate(299.0867919921875,181.87301635742188)"/>
<path d="M0 0 C1.10218369 -0.00281982 2.20436737 -0.00563965 3.33995056 -0.00854492 C5.1696212 -0.00550858 5.1696212 -0.00550858 7.03625488 -0.00241089 C8.31251236 -0.00416321 9.58876984 -0.00591553 10.90370178 -0.00772095 C14.41393793 -0.01229485 17.9241448 -0.0105059 21.43438148 -0.00734186 C25.10013536 -0.00481804 28.76588666 -0.00715586 32.43164062 -0.00872803 C38.58874972 -0.01054966 44.74584683 -0.00814359 50.9029541 -0.00338745 C58.03126406 0.00205516 65.15954541 0.0002925 72.28785467 -0.00521386 C78.39739652 -0.00974518 84.50692974 -0.01039544 90.61647272 -0.00777519 C94.27011236 -0.00621252 97.92373854 -0.00601838 101.57737732 -0.00931168 C105.64832262 -0.01272451 109.71921826 -0.00800035 113.79016113 -0.00241089 C115.00994156 -0.00443512 116.22972198 -0.00645935 117.48646545 -0.00854492 C119.13974098 -0.00431519 119.13974098 -0.00431519 120.82641602 0 C122.27214367 0.00056554 122.27214367 0.00056554 123.74707794 0.0011425 C125.91320801 0.12698364 125.91320801 0.12698364 126.91320801 1.12698364 C127.01237371 2.74955909 127.04400577 4.37638195 127.04602051 6.00198364 C127.04730957 6.98682739 127.04859863 7.97167114 127.04992676 8.98635864 C127.04605957 10.02276489 127.04219238 11.05917114 127.03820801 12.12698364 C127.0420752 13.16338989 127.04594238 14.19979614 127.04992676 15.26760864 C127.04799316 16.74487427 127.04799316 16.74487427 127.04602051 18.25198364 C127.04489258 19.16206177 127.04376465 20.07213989 127.04260254 21.00979614 C126.91320801 23.12698364 126.91320801 23.12698364 125.91320801 24.12698364 C124.21993744 24.22535405 122.52254146 24.2533038 120.82641602 24.25396729 C119.72423233 24.25678711 118.62204865 24.25960693 117.48646545 24.26251221 C116.26668503 24.26048798 115.0469046 24.25846375 113.79016113 24.25637817 C111.87577492 24.25900665 111.87577492 24.25900665 109.92271423 24.26168823 C106.41247809 24.26626213 102.90227121 24.26447319 99.39203453 24.26130915 C95.72628065 24.25878532 92.06052936 24.26112315 88.39477539 24.26269531 C82.2376663 24.26451694 76.08056919 24.26211087 69.92346191 24.25735474 C62.79515196 24.25191213 55.6668706 24.25367479 48.53856134 24.25918114 C42.4290195 24.26371246 36.31948628 24.26436273 30.20994329 24.26174247 C26.55630366 24.2601798 22.90267748 24.25998566 19.2490387 24.26327896 C15.1780934 24.2666918 11.10719776 24.26196764 7.03625488 24.25637817 C5.20658424 24.25941452 5.20658424 24.25941452 3.33995056 24.26251221 C1.68667503 24.25828247 1.68667503 24.25828247 0 24.25396729 C-0.96381844 24.25359026 -1.92763687 24.25321323 -2.92066193 24.25282478 C-5.08679199 24.12698364 -5.08679199 24.12698364 -6.08679199 23.12698364 C-6.1859577 21.5044082 -6.21758976 19.87758533 -6.21960449 18.25198364 C-6.22089355 17.26713989 -6.22218262 16.28229614 -6.22351074 15.26760864 C-6.21964355 14.23120239 -6.21577637 13.19479614 -6.21179199 12.12698364 C-6.21759277 10.57237427 -6.21759277 10.57237427 -6.22351074 8.98635864 C-6.22222168 8.00151489 -6.22093262 7.01667114 -6.21960449 6.00198364 C-6.21847656 5.09190552 -6.21734863 4.18182739 -6.21618652 3.24417114 C-5.96465226 -0.87149898 -3.56711549 0.00139538 0 0 Z " fill="#FCFDFE" transform="translate(92.0867919921875,181.87301635742188)"/>
<path d="M0 0 C43.89 0 87.78 0 133 0 C133 7.59 133 15.18 133 23 C89.11 23 45.22 23 0 23 C0 15.41 0 7.82 0 0 Z " fill="#FEFEFE" transform="translate(86,280)"/>
<path d="M0 0 C43.89 0 87.78 0 133 0 C133 7.59 133 15.18 133 23 C115.80660981 23.02311848 98.61322579 23.04097896 81.41982365 23.05181217 C73.437185 23.05697522 65.45455617 23.06401809 57.47192383 23.07543945 C50.51676201 23.08538602 43.56160731 23.09185336 36.60643858 23.09408849 C32.92148073 23.09539565 29.23654322 23.09848179 25.55159187 23.10573006 C21.44462292 23.1137434 17.33768963 23.11399116 13.23071289 23.11352539 C12.00001068 23.11712067 10.76930847 23.12071594 9.50131226 23.12442017 C8.38926926 23.1230455 7.27722626 23.12167084 6.13148499 23.12025452 C5.15899339 23.12117631 4.18650179 23.1220981 3.18454075 23.12304783 C1 23 1 23 0 22 C0 14.74 0 7.48 0 0 Z " fill="#FEFEFE" transform="translate(293,280)"/>
</svg>
